<mxfile host="app.diagrams.net" modified="2020-09-25T02:13:06.752Z" agent="5.0 (Windows NT 10.0; Win64; x64) AppleWebKit/537.36 (KHTML, like Gecko) Chrome/85.0.4183.102 Safari/537.36 Edg/85.0.564.51" etag="spNSNI9-b0G_G_JHEfdH" version="13.7.5" type="github">
  <diagram id="o19slmT8kgl7inJwd2_t" name="Page-1">
    <mxGraphModel dx="1422" dy="746" grid="1" gridSize="10" guides="1" tooltips="1" connect="1" arrows="1" fold="1" page="1" pageScale="1" pageWidth="827" pageHeight="1169" math="0" shadow="0">
      <root>
        <mxCell id="0" />
        <mxCell id="1" parent="0" />
        <mxCell id="8lV8-UPzS28wynV6jZkt-3" value="" style="edgeStyle=orthogonalEdgeStyle;rounded=0;orthogonalLoop=1;jettySize=auto;html=1;" edge="1" parent="1" source="8lV8-UPzS28wynV6jZkt-1" target="8lV8-UPzS28wynV6jZkt-2">
          <mxGeometry relative="1" as="geometry" />
        </mxCell>
        <mxCell id="8lV8-UPzS28wynV6jZkt-7" value="" style="edgeStyle=orthogonalEdgeStyle;rounded=0;orthogonalLoop=1;jettySize=auto;html=1;" edge="1" parent="1" source="8lV8-UPzS28wynV6jZkt-1" target="8lV8-UPzS28wynV6jZkt-6">
          <mxGeometry relative="1" as="geometry" />
        </mxCell>
        <mxCell id="8lV8-UPzS28wynV6jZkt-1" value="Loop" style="rounded=0;whiteSpace=wrap;html=1;" vertex="1" parent="1">
          <mxGeometry x="260" y="50" width="120" height="60" as="geometry" />
        </mxCell>
        <mxCell id="8lV8-UPzS28wynV6jZkt-5" value="" style="edgeStyle=orthogonalEdgeStyle;rounded=0;orthogonalLoop=1;jettySize=auto;html=1;" edge="1" parent="1" source="8lV8-UPzS28wynV6jZkt-2" target="8lV8-UPzS28wynV6jZkt-4">
          <mxGeometry relative="1" as="geometry" />
        </mxCell>
        <mxCell id="8lV8-UPzS28wynV6jZkt-2" value="setup" style="rounded=0;whiteSpace=wrap;html=1;" vertex="1" parent="1">
          <mxGeometry x="260" y="190" width="120" height="60" as="geometry" />
        </mxCell>
        <mxCell id="8lV8-UPzS28wynV6jZkt-9" value="" style="edgeStyle=orthogonalEdgeStyle;rounded=0;orthogonalLoop=1;jettySize=auto;html=1;" edge="1" parent="1" source="8lV8-UPzS28wynV6jZkt-4" target="8lV8-UPzS28wynV6jZkt-8">
          <mxGeometry relative="1" as="geometry" />
        </mxCell>
        <mxCell id="8lV8-UPzS28wynV6jZkt-4" value="encender led n1" style="rounded=0;whiteSpace=wrap;html=1;" vertex="1" parent="1">
          <mxGeometry x="260" y="330" width="120" height="60" as="geometry" />
        </mxCell>
        <mxCell id="8lV8-UPzS28wynV6jZkt-6" value="declarar 3 leds" style="rounded=0;whiteSpace=wrap;html=1;" vertex="1" parent="1">
          <mxGeometry x="460" y="50" width="120" height="60" as="geometry" />
        </mxCell>
        <mxCell id="8lV8-UPzS28wynV6jZkt-11" value="" style="edgeStyle=orthogonalEdgeStyle;rounded=0;orthogonalLoop=1;jettySize=auto;html=1;" edge="1" parent="1" source="8lV8-UPzS28wynV6jZkt-8" target="8lV8-UPzS28wynV6jZkt-10">
          <mxGeometry relative="1" as="geometry">
            <Array as="points">
              <mxPoint x="520" y="410" />
              <mxPoint x="320" y="410" />
            </Array>
          </mxGeometry>
        </mxCell>
        <mxCell id="8lV8-UPzS28wynV6jZkt-8" value="apagar led n1" style="rounded=0;whiteSpace=wrap;html=1;" vertex="1" parent="1">
          <mxGeometry x="460" y="330" width="120" height="60" as="geometry" />
        </mxCell>
        <mxCell id="8lV8-UPzS28wynV6jZkt-13" value="" style="edgeStyle=orthogonalEdgeStyle;rounded=0;orthogonalLoop=1;jettySize=auto;html=1;" edge="1" parent="1" source="8lV8-UPzS28wynV6jZkt-10" target="8lV8-UPzS28wynV6jZkt-12">
          <mxGeometry relative="1" as="geometry" />
        </mxCell>
        <mxCell id="8lV8-UPzS28wynV6jZkt-10" value="Encender led2" style="rounded=0;whiteSpace=wrap;html=1;" vertex="1" parent="1">
          <mxGeometry x="260" y="440" width="120" height="60" as="geometry" />
        </mxCell>
        <mxCell id="8lV8-UPzS28wynV6jZkt-15" value="" style="edgeStyle=orthogonalEdgeStyle;rounded=0;orthogonalLoop=1;jettySize=auto;html=1;" edge="1" parent="1" source="8lV8-UPzS28wynV6jZkt-12" target="8lV8-UPzS28wynV6jZkt-14">
          <mxGeometry relative="1" as="geometry">
            <Array as="points">
              <mxPoint x="520" y="510" />
              <mxPoint x="320" y="510" />
            </Array>
          </mxGeometry>
        </mxCell>
        <mxCell id="8lV8-UPzS28wynV6jZkt-12" value="Apagar Led2" style="rounded=0;whiteSpace=wrap;html=1;" vertex="1" parent="1">
          <mxGeometry x="460" y="440" width="120" height="60" as="geometry" />
        </mxCell>
        <mxCell id="8lV8-UPzS28wynV6jZkt-17" value="" style="edgeStyle=orthogonalEdgeStyle;rounded=0;orthogonalLoop=1;jettySize=auto;html=1;" edge="1" parent="1" source="8lV8-UPzS28wynV6jZkt-14" target="8lV8-UPzS28wynV6jZkt-16">
          <mxGeometry relative="1" as="geometry" />
        </mxCell>
        <mxCell id="8lV8-UPzS28wynV6jZkt-14" value="Encender Led 3&amp;nbsp;" style="rounded=0;whiteSpace=wrap;html=1;" vertex="1" parent="1">
          <mxGeometry x="260" y="530" width="120" height="60" as="geometry" />
        </mxCell>
        <mxCell id="8lV8-UPzS28wynV6jZkt-23" style="edgeStyle=orthogonalEdgeStyle;rounded=0;orthogonalLoop=1;jettySize=auto;html=1;entryX=1;entryY=0.5;entryDx=0;entryDy=0;" edge="1" parent="1" source="8lV8-UPzS28wynV6jZkt-16" target="8lV8-UPzS28wynV6jZkt-2">
          <mxGeometry relative="1" as="geometry">
            <mxPoint x="390" y="210" as="targetPoint" />
            <Array as="points">
              <mxPoint x="700" y="560" />
              <mxPoint x="700" y="220" />
            </Array>
          </mxGeometry>
        </mxCell>
        <mxCell id="8lV8-UPzS28wynV6jZkt-16" value="Apagar Led3" style="rounded=0;whiteSpace=wrap;html=1;" vertex="1" parent="1">
          <mxGeometry x="460" y="530" width="120" height="60" as="geometry" />
        </mxCell>
      </root>
    </mxGraphModel>
  </diagram>
</mxfile>
